<?xml version="1.0" standalone="no"?>
<!DOCTYPE svg PUBLIC "-//W3C//DTD SVG 20010904//EN"
 "http://www.w3.org/TR/2001/REC-SVG-20010904/DTD/svg10.dtd">
<svg version="1.0" xmlns="http://www.w3.org/2000/svg"
 width="700.000000pt" height="700.000000pt" viewBox="0 0 700.000000 700.000000"
 preserveAspectRatio="xMidYMid meet">
<metadata>
Created by potrace 1.11, written by Peter Selinger 2001-2013
</metadata>
<g transform="translate(0.000000,700.000000) scale(0.100000,-0.100000)"
fill="#000000" stroke="none">
<path d="M5320 6483 c-1 -16 -1 -197 -1 -404 0 -303 -3 -380 -14 -395 -13 -18
-39 -19 -657 -19 -553 0 -646 -2 -664 -15 -12 -8 -55 -60 -97 -115 -41 -55
-146 -194 -233 -310 -88 -115 -325 -430 -529 -700 -203 -269 -417 -553 -475
-630 -58 -77 -216 -286 -350 -465 -135 -179 -248 -329 -253 -335 -4 -5 -42
-55 -83 -110 -41 -55 -80 -107 -87 -115 -7 -9 -32 -42 -57 -75 -24 -33 -48
-64 -53 -70 -4 -5 -96 -127 -203 -270 -107 -143 -208 -273 -225 -290 l-29 -30
-647 -2 c-355 -1 -648 -4 -650 -7 -2 -2 -5 -185 -5 -407 l-2 -404 860 -3 860
-2 21 22 c12 13 60 75 108 138 47 63 168 223 268 355 100 132 210 278 245 325
34 47 73 99 87 115 25 33 487 644 870 1152 132 175 242 320 245 323 3 3 161
212 350 465 190 253 347 462 350 465 3 3 31 40 64 83 32 43 67 82 77 87 10 6
191 10 448 10 l431 0 14 -23 c13 -19 15 -85 15 -422 0 -246 3 -401 9 -403 5
-1 16 4 24 12 12 12 139 110 228 176 41 30 493 369 520 390 14 10 122 91 240
180 118 88 222 166 230 173 8 6 85 64 170 127 85 63 157 117 160 120 3 3 24
20 48 39 23 18 42 36 42 41 0 4 -51 46 -112 91 -62 46 -120 89 -128 96 -61 50
-1419 1063 -1424 1063 -3 0 -6 -12 -6 -27z"/>
<path d="M14 5658 c-3 -4 -6 -187 -6 -405 l-2 -398 649 -3 c498 -2 652 -5 663
-15 8 -6 33 -36 55 -66 22 -30 46 -62 53 -70 7 -9 117 -157 246 -328 128 -172
236 -313 239 -313 4 0 45 51 93 113 48 61 92 119 99 127 7 8 46 60 87 115 41
55 78 105 83 110 42 49 147 201 147 211 0 11 -458 634 -480 654 -3 3 -17 21
-30 40 -13 19 -27 37 -30 40 -3 3 -17 21 -30 40 -13 19 -27 37 -30 40 -3 3
-21 26 -40 52 -19 26 -44 51 -55 55 -26 9 -1706 10 -1711 1z"/>
<path d="M5320 2943 c0 -21 -1 -204 -1 -408 0 -216 -4 -377 -10 -387 -9 -17
-37 -18 -463 -18 -417 0 -454 1 -473 18 -20 17 -355 459 -362 477 -2 5 -7 12
-10 15 -4 3 -47 58 -96 123 -49 65 -92 120 -97 123 -4 3 -14 1 -22 -3 -8 -5
-112 -136 -230 -293 -118 -157 -219 -290 -224 -296 -6 -6 -17 -25 -26 -41 -22
-43 -60 13 574 -829 33 -45 70 -90 81 -100 19 -17 58 -18 680 -18 575 -1 661
-3 669 -16 6 -9 10 -181 10 -416 0 -220 3 -403 6 -407 4 -4 599 436 1084 803
49 37 346 259 410 307 36 26 67 50 70 53 3 3 21 17 40 30 35 24 59 49 60 62 0
3 -33 30 -72 59 -40 30 -75 56 -78 59 -3 3 -219 165 -480 360 -261 195 -477
357 -480 360 -3 3 -130 98 -282 213 l-278 207 0 -37z"/>
</g>
</svg>
