<svg aria-label="TwitchRandom logo" role="img" xmlns="http://www.w3.org/2000/svg" viewBox="0 0 500 500">
    <path d="M0.6,347.7c29.8,0,59.6,0,89.4,0.1c3.1,0,5.1-1.2,6.9-3.5
    c14-18.6,28-37.2,42.1-55.8c13.8-18.3,27.6-36.5,41.3-54.8c13.4-17.8,26.8-35.5,40.2-53.3c9.4-12.5,18.8-25,28.3-37.5
    c11.4-15.1,22.9-30.1,34.2-45.3c1.3-1.7,2.7-2.2,4.7-2.2c28.9,0.1,57.7,0,86.6,0c5.1,0,5.6-0.5,5.6-5.6c0-18.2,0-36.4,0-55.4
    c3.7,2.8,7.1,5.2,10.5,7.7c24.1,18.1,48.1,36.1,72.2,54.2c12,9,24.1,18,36.1,27c0.4,0.3,0.7,0.8,1,1.2
    c-6.4,5.6-13.4,10.3-20.1,15.4c-18.1,13.7-36.3,27.3-54.4,40.9c-12.5,9.3-25,18.6-37.4,28c-1.9,1.4-3.7,3-5.5,4.6
    c-0.7,0.6-1.3,1-2.4,0.9c0-14.1,0-28.2,0-42.3c0-4.7-0.1-9.5,0-14.2c0-2.9-1.2-4.2-4.1-4.2c-19.4,0-38.8,0.1-58.2,0
    c-2.6,0-4.1,1.5-5.4,3.3c-11.2,14.9-22.3,29.8-33.5,44.6c-14.9,19.8-29.8,39.6-44.8,59.3c-15.7,20.6-31.2,41.4-46.9,62
    c-14.9,19.8-30,39.4-44.8,59.3c-5.7,7.7-11.7,15.3-17.4,23c-1.2,1.6-2.4,1.4-3.9,1.4c-28.2,0-56.5,0-84.7,0c-11.9,0-23.8,0-35.7,0
    C0.6,386.9,0.6,367.3,0.6,347.7z"/>
    <path d="M0.6,95.4c39.9,0,79.8,0,119.7-0.1c2.4,0,3.9,0.6,5.4,2.6
    c15.4,20.6,30.8,41.1,46.3,61.7c1.2,1.6,1.2,2.8-0.2,4.6c-8.3,10.8-16.4,21.7-24.5,32.5c-3.5,4.6-7,9.1-10.7,13.8
    c-3.7-4.8-7.4-9.6-11-14.4c-10.2-13.6-20.4-27.3-30.5-40.9c-1.3-1.8-3-1.7-4.8-1.7c-21.6,0-43.2,0-64.8,0c-8.3,0-16.6,0-25,0
    C0.6,134.2,0.6,114.8,0.6,95.4z"/>
    <path d="M379.9,287.1c4.5,3.4,8.5,6.3,12.5,9.3
    c21.5,16.1,43,32.3,64.4,48.4c13.7,10.3,27.5,20.5,41.2,30.8c1.7,1.3,1.9,2.1-0.1,3.6c-22.5,16.7-44.8,33.6-67.2,50.4
    c-16.1,12.1-32.3,24.2-48.4,36.3c-0.6,0.4-1.3,0.7-2,1.2c-0.6-1.1-0.3-2.3-0.3-3.3c0-17.4,0-34.8,0-52.1c0-4.5-0.6-5.1-5.1-5.1
    c-29.4,0-58.8,0-88.2,0.1c-2.2,0-3.7-0.6-5-2.3c-14.1-18.8-28.2-37.6-42.3-56.4c-0.2-0.3-0.3-0.6-0.5-0.8
    c-4.7-6.4-4.6-6.3,0.1-12.4c9.4-12.3,18.7-24.6,28-37c4.2-5.6,4.1-5.6,8.2-0.2c12,16,24,31.9,35.9,47.9c1.3,1.7,2.9,2.5,5.1,2.5
    c19.7-0.1,39.4,0,59.1,0c3.9,0,4.6-0.8,4.6-4.6c0-17.3,0-34.5,0-51.8C379.9,290.1,379.9,289,379.9,287.1z"/>
</svg>